<svg width="32" height="32" viewBox="0 0 32 32" fill="none" xmlns="http://www.w3.org/2000/svg">
  <!-- Background with gradient -->
  <defs>
    <linearGradient id="gradient" x1="0%" y1="0%" x2="100%" y2="100%">
      <stop offset="0%" style="stop-color:#2563eb;stop-opacity:1" />
      <stop offset="100%" style="stop-color:#9333ea;stop-opacity:1" />
    </linearGradient>
  </defs>
  
  <!-- Background circle -->
  <circle cx="16" cy="16" r="16" fill="url(#gradient)"/>
  
  <!-- QR Code pattern -->
  <!-- Top-left corner -->
  <rect x="6" y="6" width="8" height="8" fill="white" rx="1"/>
  <rect x="8" y="8" width="4" height="4" fill="url(#gradient)" rx="0.5"/>
  
  <!-- Top-right corner -->
  <rect x="18" y="6" width="8" height="8" fill="white" rx="1"/>
  <rect x="20" y="8" width="4" height="4" fill="url(#gradient)" rx="0.5"/>
  
  <!-- Bottom-left corner -->
  <rect x="6" y="18" width="8" height="8" fill="white" rx="1"/>
  <rect x="8" y="20" width="4" height="4" fill="url(#gradient)" rx="0.5"/>
  
  <!-- Center dots pattern -->
  <rect x="16" y="16" width="2" height="2" fill="white" rx="0.5"/>
  <rect x="18" y="18" width="2" height="2" fill="white" rx="0.5"/>
  <rect x="20" y="20" width="2" height="2" fill="white" rx="0.5"/>
  <rect x="22" y="18" width="2" height="2" fill="white" rx="0.5"/>
  <rect x="18" y="22" width="2" height="2" fill="white" rx="0.5"/>
</svg>
